<svg width="9" height="12" viewBox="0 0 9 12" fill="none" xmlns="http://www.w3.org/2000/svg">
<path d="M8.45312 12H0.804688V10.6953L4.59375 6.5625C5.14062 5.95312 5.52865 5.44531 5.75781 5.03906C5.99219 4.6276 6.10938 4.21615 6.10938 3.80469C6.10938 3.26302 5.95573 2.82552 5.64844 2.49219C5.34635 2.15885 4.9375 1.99219 4.42188 1.99219C3.80729 1.99219 3.33073 2.17969 2.99219 2.55469C2.65365 2.92969 2.48438 3.44271 2.48438 4.09375H0.585938C0.585938 3.40104 0.742188 2.77865 1.05469 2.22656C1.3724 1.66927 1.82292 1.23698 2.40625 0.929688C2.99479 0.622396 3.67188 0.46875 4.4375 0.46875C5.54167 0.46875 6.41146 0.747396 7.04688 1.30469C7.6875 1.85677 8.00781 2.6224 8.00781 3.60156C8.00781 4.16927 7.84635 4.76562 7.52344 5.39062C7.20573 6.01042 6.68229 6.71615 5.95312 7.50781L3.17188 10.4844H8.45312V12Z" fill="white"/>
</svg>
