<svg width="9" height="13" viewBox="0 0 9 13" fill="none" xmlns="http://www.w3.org/2000/svg">
<path d="M3 5.44531H4.15625C4.73958 5.4401 5.20052 5.28906 5.53906 4.99219C5.88281 4.69531 6.05469 4.26562 6.05469 3.70312C6.05469 3.16146 5.91146 2.74219 5.625 2.44531C5.34375 2.14323 4.91146 1.99219 4.32812 1.99219C3.81771 1.99219 3.39844 2.14062 3.07031 2.4375C2.74219 2.72917 2.57812 3.11198 2.57812 3.58594H0.679688C0.679688 3.0026 0.833333 2.47135 1.14062 1.99219C1.45312 1.51302 1.88542 1.14062 2.4375 0.875C2.99479 0.604167 3.61719 0.46875 4.30469 0.46875C5.4401 0.46875 6.33073 0.755208 6.97656 1.32812C7.6276 1.89583 7.95312 2.6875 7.95312 3.70312C7.95312 4.21354 7.78906 4.69531 7.46094 5.14844C7.13802 5.59635 6.71875 5.9349 6.20312 6.16406C6.82812 6.3776 7.30208 6.71354 7.625 7.17188C7.95312 7.63021 8.11719 8.17708 8.11719 8.8125C8.11719 9.83333 7.76562 10.6458 7.0625 11.25C6.36458 11.8542 5.44531 12.1562 4.30469 12.1562C3.21094 12.1562 2.3151 11.8646 1.61719 11.2812C0.919271 10.6979 0.570312 9.92188 0.570312 8.95312H2.46875C2.46875 9.45312 2.63542 9.85938 2.96875 10.1719C3.30729 10.4844 3.76042 10.6406 4.32812 10.6406C4.91667 10.6406 5.38021 10.4844 5.71875 10.1719C6.05729 9.85938 6.22656 9.40625 6.22656 8.8125C6.22656 8.21354 6.04948 7.7526 5.69531 7.42969C5.34115 7.10677 4.8151 6.94531 4.11719 6.94531H3V5.44531Z" fill="white"/>
</svg>
